<svg xmlns="http://www.w3.org/2000/svg" xmlns:xlink="http://www.w3.org/1999/xlink" style="isolation:isolate" class="svg-content-responsive" preserveAspectRatio="xMinYMin meet" viewBox="0 0 600 500">

                    <path d=" M 154.407 72.807 L 75.841 142.495 L 105.069 221.41 L 197.599 217.374 L 223.13 145.623 L 154.407 72.807 Z " fill="transparent" stroke="white"></path><path d=" M 425.681 382.936 L 377.428 428.065 L 283.943 318.536 L 197.599 217.374" fill="transparent" stroke="white"></path>
                    <line x1="377.732" y1="334.46" x2="333.931" y2="377.103" stroke="white"></line>

                    <!-- Major stars -->
                    <!-- Headline -->
                    <circle cx="196.5" cy="218" r="6" ng-click="showLyrics('Headline')"></circle>
                    <text x="208.5" y="218" text-anchor="left" ng-click="showLyrics('Headline')">Headline</text>
                    <!-- Merit -->
                    <circle cx="222" cy="146.5" r="6" ng-click="showLyrics('Merit')"></circle>
                    <text x="234" y="146.5" text-anchor="left" ng-click="showLyrics('Merit')">Merit</text>
                    <!-- A Great Cloud -->
                    <circle cx="154" cy="72" r="6" ng-click="showLyrics('A Great Cloud')"></circle>
                    <text x="168" y="72" text-anchor="left" ng-click="showLyrics('A Great Cloud')">A Great Cloud</text>
                    <!-- Strangers -->
                    <circle cx="75.5" cy="144" r="6" ng-click="showLyrics('Strangers')"></circle>
                    <text x="88.5" y="154" text-anchor="left" ng-click="showLyrics('Strangers')">Strangers</text>
                    <!-- Take -->
                    <circle cx="105" cy="221.5" r="6" ng-click="showLyrics('Take')"></circle>
                    <text x="110" y="248.5" text-anchor="left" ng-click="showLyrics('Take')">Take</text>
                    <!-- Vultures -->
                    <circle cx="281.5" cy="317" r="6" ng-click="showLyrics('Vultures')"></circle>
                    <text x="288.5" y="310" text-anchor="left" ng-click="showLyrics('Vultures')">Vultures</text>
                    <!-- Catch & Release -->
                    <circle cx="378.5" cy="334" r="6" ng-click="showLyrics('Catch &amp; Release')"></circle>
                    <text x="390.5" y="334" text-anchor="left" ng-click="showLyrics('Catch &amp; Release')">Catch &amp; Release</text>
                    <!-- Good Angels -->
                    <circle cx="376" cy="428" r="6" ng-click="showLyrics('Good Angels')"></circle>
                    <text x="386" y="444" text-anchor="left" ng-click="showLyrics('Good Angels')">Good Angels</text>
                    <!-- Small House -->
                    <circle cx="424" cy="383" r="6" ng-click="showLyrics('Small House')"></circle>
                    <text x="436" y="383" text-anchor="left" ng-click="showLyrics('Small House')">Small House</text>

                    <!-- Short Fiction -->
                    <circle cx="385" cy="144" r="6" ng-click="showLyrics('Short Fiction')"></circle>
                    <text x="396" y="136" text-anchor="left" ng-click="showLyrics('Short Fiction')">Short Fiction</text>

                    <!-- Decorative stars -->
                    <circle cx="132" cy="10" r="2"></circle>
                    <circle cx="12" cy="34" r="1"></circle>
                    <circle cx="16" cy="150" r="1"></circle>
                    <circle cx="16" cy="289" r="2"></circle>
                    <circle cx="12" cy="488" r="1"></circle>
                    <circle cx="173" cy="44" r="1"></circle>
                    <circle cx="233" cy="102" r="1"></circle>
                    <circle cx="284" cy="68" r="2"></circle>
                    <circle cx="324" cy="12" r="2"></circle>
                    <circle cx="378" cy="23" r="2"></circle>
                    <circle cx="485" cy="56" r="2"></circle>
                    <circle cx="489" cy="92" r="2"></circle>
                    <circle cx="539" cy="82" r="1"></circle>
                    <circle cx="580" cy="44" r="2"></circle>
                    <circle cx="570" cy="140" r="2"></circle>
                    <circle cx="587" cy="225" r="1"></circle>
                    <circle cx="596" cy="450" r="1"></circle>
                    <circle cx="588" cy="350" r="2"></circle>
                    <circle cx="546" cy="302" r="2"></circle>
                    <circle cx="488" cy="222" r="2"></circle>
                    <circle cx="531" cy="171" r="1"></circle>
                    <circle cx="380" cy="487" r="1"></circle>
                    <circle cx="457" cy="477" r="2"></circle>
                    <circle cx="518" cy="409" r="1"></circle>
                    <circle cx="425" cy="300" r="2"></circle>
                    <circle cx="354" cy="238" r="2"></circle>
                    <circle cx="405" cy="196" r="1"></circle>
                    <circle cx="417" cy="184" r="2"></circle>
                    <circle cx="378" cy="102" r="1"></circle>
                    <circle cx="289" cy="8" r="1"></circle>
                    <circle cx="52" cy="64" r="2"></circle>
                    <circle cx="66" cy="72" r="2"></circle>
                    <circle cx="52" cy="200" r="2"></circle>
                    <circle cx="74" cy="274" r="1"></circle>
                    <circle cx="52" cy="306" r="1"></circle>
                    <circle cx="52" cy="444" r="2"></circle>
                    <circle cx="82" cy="404" r="2"></circle>
                    <circle cx="150" cy="414" r="1"></circle>
                    <circle cx="150" cy="486" r="2"></circle>
                    <circle cx="272" cy="392" r="2"></circle>
                    <circle cx="282" cy="382" r="2"></circle>
                    <circle cx="250" cy="300" r="1"></circle>
                    <circle cx="177" cy="277" r="1"></circle>


                </svg>