<?xml version="1.0" encoding="UTF-8" standalone="no"?><!-- Generator: Gravit.io --><svg xmlns="http://www.w3.org/2000/svg" xmlns:xlink="http://www.w3.org/1999/xlink" style="isolation:isolate" viewBox="0 0 300 500" width="300pt" height="500pt"><defs><clipPath id="_clipPath_sTEqVrr2v9lp03bgmTHOMXWH11AxTe9j"><rect width="300" height="500"/></clipPath></defs><g clip-path="url(#_clipPath_sTEqVrr2v9lp03bgmTHOMXWH11AxTe9j)"><g><path d=" M 115.988 10 C 115.988 8.896 116.779 8 117.753 8 C 118.726 8 119.517 8.896 119.517 10 C 119.517 11.104 118.726 12 117.753 12 C 116.779 12 115.988 11.104 115.988 10 Z " fill="rgb(255,255,255)"/><path d=" M 11 34 C 11 33.448 11.395 33 11.882 33 C 12.369 33 12.765 33.448 12.765 34 C 12.765 34.552 12.369 35 11.882 35 C 11.395 35 11 34.552 11 34 Z " fill="rgb(255,255,255)"/><path d=" M 14.529 150 C 14.529 149.448 14.924 149 15.411 149 C 15.898 149 16.294 149.448 16.294 150 C 16.294 150.552 15.898 151 15.411 151 C 14.924 151 14.529 150.552 14.529 150 Z " fill="rgb(255,255,255)"/><path d=" M 13.647 289 C 13.647 287.896 14.437 287 15.411 287 C 16.385 287 17.176 287.896 17.176 289 C 17.176 290.104 16.385 291 15.411 291 C 14.437 291 13.647 290.104 13.647 289 Z " fill="rgb(255,255,255)"/><path d=" M 11 488 C 11 487.448 11.395 487 11.882 487 C 12.369 487 12.765 487.448 12.765 488 C 12.765 488.552 12.369 489 11.882 489 C 11.395 489 11 488.552 11 488 Z " fill="rgb(255,255,255)"/><path d=" M 153.043 44 C 153.043 43.448 153.438 43 153.925 43 C 154.412 43 154.807 43.448 154.807 44 C 154.807 44.552 154.412 45 153.925 45 C 153.438 45 153.043 44.552 153.043 44 Z " fill="rgb(255,255,255)"/><path d=" M 205.978 102 C 205.978 101.448 206.373 101 206.86 101 C 207.347 101 207.742 101.448 207.742 102 C 207.742 102.552 207.347 103 206.86 103 C 206.373 103 205.978 102.552 205.978 102 Z " fill="rgb(255,255,255)"/><path d=" M 118.635 149.627 C 118.635 149.075 119.03 148.627 119.517 148.627 C 120.004 148.627 120.399 149.075 120.399 149.627 C 120.399 150.179 120.004 150.627 119.517 150.627 C 119.03 150.627 118.635 150.179 118.635 149.627 Z " fill="rgb(255,255,255)"/><path d=" M 250.09 68 C 250.09 66.896 250.881 66 251.855 66 C 252.829 66 253.619 66.896 253.619 68 C 253.619 69.104 252.829 70 251.855 70 C 250.881 70 250.09 69.104 250.09 68 Z " fill="rgb(255,255,255)"/><path d=" M 202.449 196.929 C 202.449 195.825 203.239 194.929 204.213 194.929 C 205.187 194.929 205.978 195.825 205.978 196.929 C 205.978 198.033 205.187 198.929 204.213 198.929 C 203.239 198.929 202.449 198.033 202.449 196.929 Z " fill="rgb(255,255,255)"/><path d=" M 285.381 12 C 285.381 10.896 286.171 10 287.145 10 C 288.119 10 288.91 10.896 288.91 12 C 288.91 13.104 288.119 14 287.145 14 C 286.171 14 285.381 13.104 285.381 12 Z " fill="rgb(255,255,255)"/><path d=" M 333.022 23 C 333.022 21.896 333.813 21 334.787 21 C 335.761 21 336.551 21.896 336.551 23 C 336.551 24.104 335.761 25 334.787 25 C 333.813 25 333.022 24.104 333.022 23 Z " fill="rgb(255,255,255)"/><path d=" M 427.423 56 C 427.423 54.896 428.214 54 429.188 54 C 430.162 54 430.952 54.896 430.952 56 C 430.952 57.104 430.162 58 429.188 58 C 428.214 58 427.423 57.104 427.423 56 Z " fill="rgb(255,255,255)"/><path d=" M 430.952 92 C 430.952 90.896 431.743 90 432.717 90 C 433.691 90 434.481 90.896 434.481 92 C 434.481 93.104 433.691 94 432.717 94 C 431.743 94 430.952 93.104 430.952 92 Z " fill="rgb(255,255,255)"/><path d=" M 475.947 82 C 475.947 81.448 476.342 81 476.829 81 C 477.316 81 477.712 81.448 477.712 82 C 477.712 82.552 477.316 83 476.829 83 C 476.342 83 475.947 82.552 475.947 82 Z " fill="rgb(255,255,255)"/><path d=" M 511.237 44 C 511.237 42.896 512.028 42 513.002 42 C 513.976 42 514.766 42.896 514.766 44 C 514.766 45.104 513.976 46 513.002 46 C 512.028 46 511.237 45.104 511.237 44 Z " fill="rgb(255,255,255)"/><path d=" M 502.415 140 C 502.415 138.896 503.205 138 504.179 138 C 505.153 138 505.944 138.896 505.944 140 C 505.944 141.104 505.153 142 504.179 142 C 503.205 142 502.415 141.104 502.415 140 Z " fill="rgb(255,255,255)"/><path d=" M 518.295 225 C 518.295 224.448 518.691 224 519.177 224 C 519.664 224 520.06 224.448 520.06 225 C 520.06 225.552 519.664 226 519.177 226 C 518.691 226 518.295 225.552 518.295 225 Z " fill="rgb(255,255,255)"/><path d=" M 526.235 450 C 526.235 449.448 526.631 449 527.118 449 C 527.605 449 528 449.448 528 450 C 528 450.552 527.605 451 527.118 451 C 526.631 451 526.235 450.552 526.235 450 Z " fill="rgb(255,255,255)"/><path d=" M 518.295 350 C 518.295 348.896 519.086 348 520.06 348 C 521.034 348 521.824 348.896 521.824 350 C 521.824 351.104 521.034 352 520.06 352 C 519.086 352 518.295 351.104 518.295 350 Z " fill="rgb(255,255,255)"/><path d=" M 481.241 302 C 481.241 300.896 482.031 300 483.005 300 C 483.979 300 484.77 300.896 484.77 302 C 484.77 303.104 483.979 304 483.005 304 C 482.031 304 481.241 303.104 481.241 302 Z " fill="rgb(255,255,255)"/><path d=" M 430.07 222 C 430.07 220.896 430.861 220 431.834 220 C 432.808 220 433.599 220.896 433.599 222 C 433.599 223.104 432.808 224 431.834 224 C 430.861 224 430.07 223.104 430.07 222 Z " fill="rgb(255,255,255)"/><path d=" M 468.889 171 C 468.889 170.448 469.284 170 469.771 170 C 470.258 170 470.654 170.448 470.654 171 C 470.654 171.552 470.258 172 469.771 172 C 469.284 172 468.889 171.552 468.889 171 Z " fill="rgb(255,255,255)"/><path d=" M 335.669 487 C 335.669 486.448 336.064 486 336.551 486 C 337.038 486 337.433 486.448 337.433 487 C 337.433 487.552 337.038 488 336.551 488 C 336.064 488 335.669 487.552 335.669 487 Z " fill="rgb(255,255,255)"/><path d=" M 402.72 477 C 402.72 475.896 403.511 475 404.485 475 C 405.458 475 406.249 475.896 406.249 477 C 406.249 478.104 405.458 479 404.485 479 C 403.511 479 402.72 478.104 402.72 477 Z " fill="rgb(255,255,255)"/><path d=" M 457.42 409 C 457.42 408.448 457.815 408 458.302 408 C 458.789 408 459.184 408.448 459.184 409 C 459.184 409.552 458.789 410 458.302 410 C 457.815 410 457.42 409.552 457.42 409 Z " fill="rgb(255,255,255)"/><path d=" M 374.488 300 C 374.488 298.896 375.279 298 376.253 298 C 377.226 298 378.017 298.896 378.017 300 C 378.017 301.104 377.226 302 376.253 302 C 375.279 302 374.488 301.104 374.488 300 Z " fill="rgb(255,255,255)"/><path d=" M 311.848 238 C 311.848 236.896 312.639 236 313.613 236 C 314.586 236 315.377 236.896 315.377 238 C 315.377 239.104 314.586 240 313.613 240 C 312.639 240 311.848 239.104 311.848 238 Z " fill="rgb(255,255,255)"/><path d=" M 357.725 196 C 357.725 195.448 358.121 195 358.608 195 C 359.094 195 359.49 195.448 359.49 196 C 359.49 196.552 359.094 197 358.608 197 C 358.121 197 357.725 196.552 357.725 196 Z " fill="rgb(255,255,255)"/><path d=" M 367.43 184 C 367.43 182.896 368.221 182 369.195 182 C 370.168 182 370.959 182.896 370.959 184 C 370.959 185.104 370.168 186 369.195 186 C 368.221 186 367.43 185.104 367.43 184 Z " fill="rgb(255,255,255)"/><path d=" M 333.904 102 C 333.904 101.448 334.3 101 334.787 101 C 335.274 101 335.669 101.448 335.669 102 C 335.669 102.552 335.274 103 334.787 103 C 334.3 103 333.904 102.552 333.904 102 Z " fill="rgb(255,255,255)"/><path d=" M 255.384 8 C 255.384 7.448 255.779 7 256.266 7 C 256.753 7 257.148 7.448 257.148 8 C 257.148 8.552 256.753 9 256.266 9 C 255.779 9 255.384 8.552 255.384 8 Z " fill="rgb(255,255,255)"/><path d=" M 57.759 72 C 57.759 70.896 58.55 70 59.524 70 C 60.498 70 61.288 70.896 61.288 72 C 61.288 73.104 60.498 74 59.524 74 C 58.55 74 57.759 73.104 57.759 72 Z " fill="rgb(255,255,255)"/><path d=" M 45.408 200 C 45.408 198.896 46.198 198 47.172 198 C 48.146 198 48.937 198.896 48.937 200 C 48.937 201.104 48.146 202 47.172 202 C 46.198 202 45.408 201.104 45.408 200 Z " fill="rgb(255,255,255)"/><path d=" M 65.7 274 C 65.7 273.448 66.095 273 66.582 273 C 67.069 273 67.464 273.448 67.464 274 C 67.464 274.552 67.069 275 66.582 275 C 66.095 275 65.7 274.552 65.7 274 Z " fill="rgb(255,255,255)"/><path d=" M 46.29 306 C 46.29 305.448 46.685 305 47.172 305 C 47.659 305 48.055 305.448 48.055 306 C 48.055 306.552 47.659 307 47.172 307 C 46.685 307 46.29 306.552 46.29 306 Z " fill="rgb(255,255,255)"/><path d=" M 45.408 444 C 45.408 442.896 46.198 442 47.172 442 C 48.146 442 48.937 442.896 48.937 444 C 48.937 445.104 48.146 446 47.172 446 C 46.198 446 45.408 445.104 45.408 444 Z " fill="rgb(255,255,255)"/><path d=" M 71.875 404 C 71.875 402.896 72.666 402 73.64 402 C 74.614 402 75.404 402.896 75.404 404 C 75.404 405.104 74.614 406 73.64 406 C 72.666 406 71.875 405.104 71.875 404 Z " fill="rgb(255,255,255)"/><path d=" M 132.751 414 C 132.751 413.448 133.146 413 133.633 413 C 134.12 413 134.515 413.448 134.515 414 C 134.515 414.552 134.12 415 133.633 415 C 133.146 415 132.751 414.552 132.751 414 Z " fill="rgb(255,255,255)"/><path d=" M 247.444 461.707 C 247.444 461.155 247.839 460.707 248.326 460.707 C 248.813 460.707 249.208 461.155 249.208 461.707 C 249.208 462.258 248.813 462.707 248.326 462.707 C 247.839 462.707 247.444 462.258 247.444 461.707 Z " fill="rgb(255,255,255)"/><path d=" M 260.628 390.463 C 260.628 389.911 261.023 389.463 261.51 389.463 C 261.997 389.463 262.392 389.911 262.392 390.463 C 262.392 391.015 261.997 391.463 261.51 391.463 C 261.023 391.463 260.628 391.015 260.628 390.463 Z " fill="rgb(255,255,255)"/><path d=" M 131.869 486 C 131.869 484.896 132.659 484 133.633 484 C 134.607 484 135.398 484.896 135.398 486 C 135.398 487.104 134.607 488 133.633 488 C 132.659 488 131.869 487.104 131.869 486 Z " fill="rgb(255,255,255)"/><path d=" M 239.503 392 C 239.503 390.896 240.294 390 241.268 390 C 242.242 390 243.032 390.896 243.032 392 C 243.032 393.104 242.242 394 241.268 394 C 240.294 394 239.503 393.104 239.503 392 Z " fill="rgb(255,255,255)"/><path d=" M 220.976 300 C 220.976 299.448 221.371 299 221.858 299 C 222.345 299 222.741 299.448 222.741 300 C 222.741 300.552 222.345 301 221.858 301 C 221.371 301 220.976 300.552 220.976 300 Z " fill="rgb(255,255,255)"/><path d=" M 156.572 277 C 156.572 276.448 156.967 276 157.454 276 C 157.941 276 158.336 276.448 158.336 277 C 158.336 277.552 157.941 278 157.454 278 C 156.967 278 156.572 277.552 156.572 277 Z " fill="rgb(255,255,255)"/></g></g></svg>